{
  "accessors": [
    {
      "bufferView": 2,
      "componentType": 5126,
      "count": 557,
      "max": [
        0.7898977994918823,
        0.8266717195510864,
        0.705320417881012
      ],
      "min": [
        -0.8007416725158691,
        -0.8266717195510864,
        -0.81126469373703
      ],
      "type": "VEC3"
    },
    {
      "bufferView": 2,
      "byteOffset": 6684,
      "componentType": 5126,
      "count": 557,
      "max": [
        0.9999033808708191,
        0.9995208382606506,
        0.9999834299087524
      ],
      "min": [
        -1.0,
        -0.9995208978652954,
        -0.9999828338623047
      ],
      "type": "VEC3"
    },
    {
      "bufferView": 1,
      "componentType": 5126,
      "count": 557,
      "max": [
        0.8750002384185791,
        1.000000238418579
      ],
      "min": [
        0.1250000149011612,
        0.0
      ],
      "type": "VEC2"
    },
    {
      "bufferView": 0,
      "componentType": 5125,
      "count": 2496,
      "type": "SCALAR"
    },
    {
      "bufferView": 2,
      "byteOffset": 13368,
      "componentType": 5126,
      "count": 286,
      "max": [
        0.857853353023529,
        0.8404808640480042,
        6.484635353088379
      ],
      "min": [
        -1.3060811758041382,
        -2.5124268531799316,
        -0.8395063281059265
      ],
      "type": "VEC3"
    },
    {
      "bufferView": 2,
      "byteOffset": 16800,
      "componentType": 5126,
      "count": 286,
      "max": [
        0.9972221255302429,
        0.9995747804641724,
        0.9869689345359802
      ],
      "min": [
        -0.998921811580658,
        -0.9906399250030518,
        -0.999718189239502
      ],
      "type": "VEC3"
    },
    {
      "bufferView": 1,
      "byteOffset": 4456,
      "componentType": 5126,
      "count": 286,
      "max": [
        0.8750001192092896,
        1.0000001192092896
      ],
      "min": [
        0.1250000149011612,
        0.0
      ],
      "type": "VEC2"
    },
    {
      "bufferView": 0,
      "byteOffset": 9984,
      "componentType": 5125,
      "count": 1344,
      "type": "SCALAR"
    },
    {
      "bufferView": 2,
      "byteOffset": 20232,
      "componentType": 5126,
      "count": 197,
      "max": [
        0.803585410118103,
        0.9300638437271118,
        0.8035853505134583
      ],
      "min": [
        -0.8035853505134583,
        -0.9094424843788147,
        -0.803585410118103
      ],
      "type": "VEC3"
    },
    {
      "bufferView": 2,
      "byteOffset": 22596,
      "componentType": 5126,
      "count": 197,
      "max": [
        0.9960862398147583,
        1.0,
        0.9960862398147583
      ],
      "min": [
        -0.9960862398147583,
        -1.0,
        -0.9960861802101135
      ],
      "type": "VEC3"
    },
    {
      "bufferView": 1,
      "byteOffset": 6744,
      "componentType": 5126,
      "count": 197,
      "max": [
        0.8750001192092896,
        1.0000001192092896
      ],
      "min": [
        0.125,
        0.0
      ],
      "type": "VEC2"
    },
    {
      "bufferView": 0,
      "byteOffset": 15360,
      "componentType": 5125,
      "count": 960,
      "type": "SCALAR"
    },
    {
      "bufferView": 2,
      "byteOffset": 24960,
      "componentType": 5126,
      "count": 566,
      "max": [
        2.116938591003418,
        16.212329864501953,
        0.8395063281059265
      ],
      "min": [
        -0.8561612963676453,
        -1.136139154434204,
        -5.416772365570068
      ],
      "type": "VEC3"
    },
    {
      "bufferView": 2,
      "byteOffset": 31752,
      "componentType": 5126,
      "count": 566,
      "max": [
        0.9902835488319397,
        0.9982339143753052,
        0.9997089505195618
      ],
      "min": [
        -0.9962374567985535,
        -0.9982340335845947,
        -0.9743129014968872
      ],
      "type": "VEC3"
    },
    {
      "bufferView": 1,
      "byteOffset": 8320,
      "componentType": 5126,
      "count": 566,
      "max": [
        0.8750001192092896,
        1.0000001192092896
      ],
      "min": [
        0.125,
        0.0
      ],
      "type": "VEC2"
    },
    {
      "bufferView": 0,
      "byteOffset": 19200,
      "componentType": 5125,
      "count": 2688,
      "type": "SCALAR"
    },
    {
      "bufferView": 2,
      "byteOffset": 38544,
      "componentType": 5126,
      "count": 1118,
      "max": [
        0.9999997019767761,
        10.884474754333496,
        1.0
      ],
      "min": [
        -0.9999990463256836,
        -0.9999993443489075,
        -1.0
      ],
      "type": "VEC3"
    },
    {
      "bufferView": 2,
      "byteOffset": 51960,
      "componentType": 5126,
      "count": 1118,
      "max": [
        1.0,
        1.0,
        1.0
      ],
      "min": [
        -1.0,
        -1.0,
        -1.0
      ],
      "type": "VEC3"
    },
    {
      "bufferView": 1,
      "byteOffset": 12848,
      "componentType": 5126,
      "count": 1118,
      "max": [
        1.0,
        1.0
      ],
      "min": [
        0.0,
        5.960464477539063e-08
      ],
      "type": "VEC2"
    },
    {
      "bufferView": 0,
      "byteOffset": 29952,
      "componentType": 5125,
      "count": 5760,
      "type": "SCALAR"
    },
    {
      "bufferView": 2,
      "byteOffset": 65376,
      "componentType": 5126,
      "count": 2010,
      "max": [
        0.9166668057441711,
        13.104364395141602,
        3.590501070022583
      ],
      "min": [
        -12.06153678894043,
        -0.9100354313850403,
        -2.555936813354492
      ],
      "type": "VEC3"
    },
    {
      "bufferView": 2,
      "byteOffset": 89496,
      "componentType": 5126,
      "count": 2010,
      "max": [
        1.0,
        1.0,
        1.0
      ],
      "min": [
        -1.0,
        -1.0,
        -1.0
      ],
      "type": "VEC3"
    },
    {
      "bufferView": 1,
      "byteOffset": 21792,
      "componentType": 5126,
      "count": 2010,
      "max": [
        0.8750001192092896,
        1.0000001192092896
      ],
      "min": [
        0.1250000149011612,
        0.0
      ],
      "type": "VEC2"
    },
    {
      "bufferView": 0,
      "byteOffset": 52992,
      "componentType": 5125,
      "count": 10752,
      "type": "SCALAR"
    },
    {
      "bufferView": 2,
      "byteOffset": 113616,
      "componentType": 5126,
      "count": 860,
      "max": [
        2.810920000076294,
        9.277878761291504,
        2.2078325748443604
      ],
      "min": [
        -1.3831030130386353,
        -1.136139154434204,
        -5.416772365570068
      ],
      "type": "VEC3"
    },
    {
      "bufferView": 2,
      "byteOffset": 123936,
      "componentType": 5126,
      "count": 860,
      "max": [
        0.9999163150787354,
        0.9969282150268555,
        0.9999969601631165
      ],
      "min": [
        -0.9997481107711792,
        -0.9982340335845947,
        -0.9861665964126587
      ],
      "type": "VEC3"
    },
    {
      "bufferView": 1,
      "byteOffset": 37872,
      "componentType": 5126,
      "count": 860,
      "max": [
        0.8750001192092896,
        1.0000001192092896
      ],
      "min": [
        0.125,
        0.0
      ],
      "type": "VEC2"
    },
    {
      "bufferView": 0,
      "byteOffset": 96000,
      "componentType": 5125,
      "count": 4224,
      "type": "SCALAR"
    }
  ],
  "asset": {
    "extras": {
      "author": "mayyye (https://sketchfab.com/mayyye1152)",
      "license": "SKETCHFAB Standard (https://sketchfab.com/licenses)",
      "source": "https://sketchfab.com/3d-models/junimo-stardew-valley-7847f76c859342148fca69324733f44c",
      "title": "Junimo (Stardew Valley)"
    },
    "generator": "Sketchfab-16.15.0",
    "version": "2.0"
  },
  "bufferViews": [
    {
      "buffer": 0,
      "byteLength": 112896,
      "name": "floatBufferViews",
      "target": 34963
    },
    {
      "buffer": 0,
      "byteLength": 44752,
      "byteOffset": 112896,
      "byteStride": 8,
      "name": "floatBufferViews",
      "target": 34962
    },
    {
      "buffer": 0,
      "byteLength": 134256,
      "byteOffset": 157648,
      "byteStride": 12,
      "name": "floatBufferViews",
      "target": 34962
    }
  ],
  "buffers": [
    {
      "byteLength": 291904,
      "uri": "scene.bin"
    }
  ],
  "materials": [
    {
      "doubleSided": true,
      "name": "Material.001",
      "pbrMetallicRoughness": {
        "baseColorFactor": [
          0.059721320128818214,
          0.7158558931551351,
          0.11324170770764261,
          1.0
        ],
        "metallicFactor": 0.0,
        "roughnessFactor": 0.6601894405773427
      }
    },
    {
      "doubleSided": true,
      "name": "Material.002",
      "pbrMetallicRoughness": {
        "baseColorFactor": [
          0.0,
          0.0,
          0.0,
          1.0
        ],
        "metallicFactor": 0.0
      }
    },
    {
      "doubleSided": true,
      "name": "Material.005",
      "pbrMetallicRoughness": {
        "baseColorFactor": [
          0.0,
          0.0,
          0.0,
          1.0
        ],
        "metallicFactor": 0.0
      }
    },
    {
      "doubleSided": true,
      "name": "Material.003",
      "pbrMetallicRoughness": {
        "baseColorFactor": [
          0.800016,
          0.23223,
          0.453408,
          1.0
        ],
        "metallicFactor": 0.0,
        "roughnessFactor": 0.9175091368169207
      }
    }
  ],
  "meshes": [
    {
      "name": "Cube.006_Material.001_0",
      "primitives": [
        {
          "attributes": {
            "NORMAL": 1,
            "POSITION": 0,
            "TEXCOORD_0": 2
          },
          "indices": 3,
          "material": 0,
          "mode": 4
        }
      ]
    },
    {
      "name": "Cube.007_Material.002_0",
      "primitives": [
        {
          "attributes": {
            "NORMAL": 5,
            "POSITION": 4,
            "TEXCOORD_0": 6
          },
          "indices": 7,
          "material": 1,
          "mode": 4
        }
      ]
    },
    {
      "name": "Cube.008_Material.001_0",
      "primitives": [
        {
          "attributes": {
            "NORMAL": 9,
            "POSITION": 8,
            "TEXCOORD_0": 10
          },
          "indices": 11,
          "material": 0,
          "mode": 4
        }
      ]
    },
    {
      "name": "Cube.009_Material.002_0",
      "primitives": [
        {
          "attributes": {
            "NORMAL": 13,
            "POSITION": 12,
            "TEXCOORD_0": 14
          },
          "indices": 15,
          "material": 1,
          "mode": 4
        }
      ]
    },
    {
      "name": "Sphere.001_Material.005_0",
      "primitives": [
        {
          "attributes": {
            "NORMAL": 17,
            "POSITION": 16,
            "TEXCOORD_0": 18
          },
          "indices": 19,
          "material": 2,
          "mode": 4
        }
      ]
    },
    {
      "name": "Cube.010_Material.003_0",
      "primitives": [
        {
          "attributes": {
            "NORMAL": 21,
            "POSITION": 20,
            "TEXCOORD_0": 22
          },
          "indices": 23,
          "material": 3,
          "mode": 4
        }
      ]
    },
    {
      "name": "Cube.011_Material.002_0",
      "primitives": [
        {
          "attributes": {
            "NORMAL": 25,
            "POSITION": 24,
            "TEXCOORD_0": 26
          },
          "indices": 27,
          "material": 1,
          "mode": 4
        }
      ]
    }
  ],
  "nodes": [
    {
      "children": [
        1
      ],
      "matrix": [
        1.0,
        0.0,
        0.0,
        0.0,
        0.0,
        2.220446049250313e-16,
        -1.0,
        0.0,
        0.0,
        1.0,
        2.220446049250313e-16,
        0.0,
        0.0,
        0.0,
        0.0,
        1.0
      ],
      "name": "Sketchfab_model"
    },
    {
      "children": [
        2
      ],
      "matrix": [
        0.009999999776482582,
        0.0,
        0.0,
        0.0,
        0.0,
        0.0,
        0.009999999776482582,
        0.0,
        0.0,
        -0.009999999776482582,
        0.0,
        0.0,
        0.0,
        0.0,
        0.0,
        1.0
      ],
      "name": "d93cd308c0494d4ca101e0768abd1e0d.fbx"
    },
    {
      "children": [
        3,
        5,
        7,
        9,
        11,
        13,
        15
      ],
      "name": "RootNode"
    },
    {
      "children": [
        4
      ],
      "matrix": [
        1746.4910888671875,
        0.0,
        0.0,
        0.0,
        -0.0,
        -0.0002845395147500216,
        -1746.4910888671645,
        0.0,
        0.0,
        1746.4910888671645,
        -0.0002845395147500216,
        0.0,
        -351.27978515625,
        -141.94129943847656,
        -2534.7685546875,
        1.0
      ],
      "name": "Cube.006"
    },
    {
      "mesh": 0,
      "name": "Cube.006_Material.001_0"
    },
    {
      "children": [
        6
      ],
      "matrix": [
        149.41049194335938,
        0.0,
        0.0,
        0.0,
        -0.0,
        -2.4342058855679863e-05,
        -149.4104919433574,
        0.0,
        0.0,
        97.80797576904168,
        -1.5934941862232263e-05,
        0.0,
        -351.27978515625,
        868.3939208984375,
        -2534.7685546875,
        1.0
      ],
      "name": "Cube.007"
    },
    {
      "mesh": 1,
      "name": "Cube.007_Material.002_0"
    },
    {
      "children": [
        8
      ],
      "matrix": [
        169.874279576312,
        -115.71214871738084,
        122.82919230754995,
        0.0,
        36.357955668005644,
        -145.09635665717286,
        -186.97259417233207,
        0.0,
        164.78592484242358,
        151.29880345327857,
        -85.36879893112291,
        0.0,
        -497.0653991699219,
        1500.42431640625,
        -2159.48876953125,
        1.0
      ],
      "name": "Cube.008"
    },
    {
      "mesh": 2,
      "name": "Cube.008_Material.001_0"
    },
    {
      "children": [
        10
      ],
      "matrix": [
        199.65975952148438,
        0.0,
        0.0,
        0.0,
        -0.0,
        -3.2528703668449915e-05,
        -199.65975952148173,
        0.0,
        0.0,
        199.65975952148173,
        -3.2528703668449915e-05,
        0.0,
        -351.27978515625,
        -141.94129943847656,
        -1029.71435546875,
        1.0
      ],
      "name": "Cube.009"
    },
    {
      "mesh": 3,
      "name": "Cube.009_Material.002_0"
    },
    {
      "children": [
        12
      ],
      "matrix": [
        138.5685272216797,
        0.0,
        0.0,
        0.0,
        0.0,
        -2.257567859728154e-05,
        -138.56852722167787,
        0.0,
        0.0,
        138.56852722167787,
        -2.257567859728154e-05,
        0.0,
        872.8932495117188,
        -178.77206420898438,
        -1849.9300537109375,
        1.0
      ],
      "name": "Sphere.001"
    },
    {
      "mesh": 4,
      "name": "Sphere.001_Material.005_0"
    },
    {
      "children": [
        14
      ],
      "matrix": [
        45.12459926794279,
        -2.1307503154829776e-06,
        15.126777111515787,
        -0.0,
        38.26910092834934,
        3.4559841176096116e-06,
        -114.16032846954343,
        -0.0,
        -4.446093688595618e-07,
        -13.341190338134746,
        -5.529218697448789e-07,
        -0.0,
        902.076171875,
        -327.93194580078125,
        -1751.1925048828125,
        1.0
      ],
      "name": "Cube.010"
    },
    {
      "mesh": 5,
      "name": "Cube.010_Material.003_0"
    },
    {
      "children": [
        16
      ],
      "matrix": [
        60.22794903860782,
        189.73123605524026,
        15.448808970223467,
        0.0,
        49.60778723707744,
        2.6329289001009062e-05,
        -193.39874568195486,
        0.0,
        -183.78159511479961,
        62.17774154787955,
        -47.140929478637425,
        0.0,
        -74.71944427490234,
        -1517.8856201171875,
        -1930.6474609375,
        1.0
      ],
      "name": "Cube.011"
    },
    {
      "mesh": 6,
      "name": "Cube.011_Material.002_0"
    }
  ],
  "scene": 0,
  "scenes": [
    {
      "name": "Sketchfab_Scene",
      "nodes": [
        0
      ]
    }
  ]
}
