{
  "accessors": [
    {
      "bufferView": 2,
      "componentType": 5126,
      "count": 65532,
      "max": [
        0.47256943583488464,
        0.25979083776474,
        0.45697396993637085
      ],
      "min": [
        -0.4356071352958679,
        -0.27966204285621643,
        -0.4148957133293152
      ],
      "type": "VEC3"
    },
    {
      "bufferView": 2,
      "byteOffset": 786384,
      "componentType": 5126,
      "count": 65532,
      "max": [
        1.0,
        0.9999998211860657,
        1.0
      ],
      "min": [
        -0.9999995827674866,
        -1.0,
        -0.9999999403953552
      ],
      "type": "VEC3"
    },
    {
      "bufferView": 3,
      "componentType": 5126,
      "count": 65532,
      "max": [
        0.9999998211860657,
        1.0,
        0.9999999403953552,
        1.0
      ],
      "min": [
        -0.9999998211860657,
        -0.9999975562095642,
        -0.9999951124191284,
        -1.0
      ],
      "type": "VEC4"
    },
    {
      "bufferView": 1,
      "componentType": 5126,
      "count": 65532,
      "max": [
        0.9986759424209595,
        0.9979217648506165
      ],
      "min": [
        0.00046762387501075864,
        0.0013530254364013672
      ],
      "type": "VEC2"
    },
    {
      "bufferView": 1,
      "byteOffset": 524256,
      "componentType": 5126,
      "count": 65532,
      "max": [
        0.9986759424209595,
        0.9979217648506165
      ],
      "min": [
        0.00046762387501075864,
        0.0013530254364013672
      ],
      "type": "VEC2"
    },
    {
      "bufferView": 1,
      "byteOffset": 1048512,
      "componentType": 5126,
      "count": 65532,
      "max": [
        0.9986759424209595,
        0.9979217648506165
      ],
      "min": [
        0.00046762387501075864,
        0.0013530254364013672
      ],
      "type": "VEC2"
    },
    {
      "bufferView": 1,
      "byteOffset": 1572768,
      "componentType": 5126,
      "count": 65532,
      "max": [
        0.9986759424209595,
        0.9979217648506165
      ],
      "min": [
        0.00046762387501075864,
        0.0013530254364013672
      ],
      "type": "VEC2"
    },
    {
      "bufferView": 0,
      "componentType": 5125,
      "count": 360984,
      "type": "SCALAR"
    },
    {
      "bufferView": 2,
      "byteOffset": 1572768,
      "componentType": 5126,
      "count": 65532,
      "max": [
        0.1657000631093979,
        0.25977927446365356,
        0.45657846331596375
      ],
      "min": [
        -0.4736168384552002,
        -0.27997681498527527,
        -0.4509192407131195
      ],
      "type": "VEC3"
    },
    {
      "bufferView": 2,
      "byteOffset": 2359152,
      "componentType": 5126,
      "count": 65532,
      "max": [
        0.999998152256012,
        0.9999999403953552,
        1.0
      ],
      "min": [
        -1.0,
        -0.9999999403953552,
        -0.9999998807907104
      ],
      "type": "VEC3"
    },
    {
      "bufferView": 3,
      "byteOffset": 1048512,
      "componentType": 5126,
      "count": 65532,
      "max": [
        0.9999985694885254,
        0.9999999403953552,
        0.9999999403953552,
        -1.0
      ],
      "min": [
        -0.9999993443489075,
        -0.9999943971633911,
        -0.9999915957450867,
        -1.0
      ],
      "type": "VEC4"
    },
    {
      "bufferView": 1,
      "byteOffset": 2097024,
      "componentType": 5126,
      "count": 65532,
      "max": [
        0.9996787905693054,
        0.9956859946250916
      ],
      "min": [
        0.004894353449344635,
        0.006398141384124756
      ],
      "type": "VEC2"
    },
    {
      "bufferView": 1,
      "byteOffset": 2621280,
      "componentType": 5126,
      "count": 65532,
      "max": [
        0.9996787905693054,
        0.9956859946250916
      ],
      "min": [
        0.004894353449344635,
        0.006398141384124756
      ],
      "type": "VEC2"
    },
    {
      "bufferView": 1,
      "byteOffset": 3145536,
      "componentType": 5126,
      "count": 65532,
      "max": [
        0.9996787905693054,
        0.9956859946250916
      ],
      "min": [
        0.004894353449344635,
        0.006398141384124756
      ],
      "type": "VEC2"
    },
    {
      "bufferView": 1,
      "byteOffset": 3669792,
      "componentType": 5126,
      "count": 65532,
      "max": [
        0.9996787905693054,
        0.9956859946250916
      ],
      "min": [
        0.004894353449344635,
        0.006398141384124756
      ],
      "type": "VEC2"
    },
    {
      "bufferView": 0,
      "byteOffset": 1443936,
      "componentType": 5125,
      "count": 355533,
      "type": "SCALAR"
    },
    {
      "bufferView": 2,
      "byteOffset": 3145536,
      "componentType": 5126,
      "count": 65532,
      "max": [
        0.006824525538831949,
        0.2801976799964905,
        0.4416032135486603
      ],
      "min": [
        -0.4676312208175659,
        -0.27953454852104187,
        -0.4013604521751404
      ],
      "type": "VEC3"
    },
    {
      "bufferView": 2,
      "byteOffset": 3931920,
      "componentType": 5126,
      "count": 65532,
      "max": [
        0.9999966621398926,
        0.9999982714653015,
        1.0
      ],
      "min": [
        -0.9999977946281433,
        -1.0,
        -0.9999999403953552
      ],
      "type": "VEC3"
    },
    {
      "bufferView": 3,
      "byteOffset": 2097024,
      "componentType": 5126,
      "count": 65532,
      "max": [
        0.9999982714653015,
        0.9999995231628418,
        0.999996542930603,
        1.0
      ],
      "min": [
        -0.9999732971191406,
        -0.9999852180480957,
        -0.999984622001648,
        -1.0
      ],
      "type": "VEC4"
    },
    {
      "bufferView": 1,
      "byteOffset": 4194048,
      "componentType": 5126,
      "count": 65532,
      "max": [
        0.9997700452804565,
        0.9989514350891113
      ],
      "min": [
        0.0010189022868871689,
        0.004368960857391357
      ],
      "type": "VEC2"
    },
    {
      "bufferView": 1,
      "byteOffset": 4718304,
      "componentType": 5126,
      "count": 65532,
      "max": [
        0.9997700452804565,
        0.9989514350891113
      ],
      "min": [
        0.0010189022868871689,
        0.004368960857391357
      ],
      "type": "VEC2"
    },
    {
      "bufferView": 1,
      "byteOffset": 5242560,
      "componentType": 5126,
      "count": 65532,
      "max": [
        0.9997700452804565,
        0.9989514350891113
      ],
      "min": [
        0.0010189022868871689,
        0.004368960857391357
      ],
      "type": "VEC2"
    },
    {
      "bufferView": 1,
      "byteOffset": 5766816,
      "componentType": 5126,
      "count": 65532,
      "max": [
        0.9997700452804565,
        0.9989514350891113
      ],
      "min": [
        0.0010189022868871689,
        0.004368960857391357
      ],
      "type": "VEC2"
    },
    {
      "bufferView": 0,
      "byteOffset": 2866068,
      "componentType": 5125,
      "count": 358431,
      "type": "SCALAR"
    },
    {
      "bufferView": 2,
      "byteOffset": 4718304,
      "componentType": 5126,
      "count": 65534,
      "max": [
        0.0025704591535031796,
        0.0024923188611865044,
        0.4279783368110657
      ],
      "min": [
        -0.47258493304252625,
        -0.28003817796707153,
        -0.40041500329971313
      ],
      "type": "VEC3"
    },
    {
      "bufferView": 2,
      "byteOffset": 5504712,
      "componentType": 5126,
      "count": 65534,
      "max": [
        0.9999980926513672,
        1.0,
        0.999997615814209
      ],
      "min": [
        -1.0,
        -1.0,
        -0.9999998807907104
      ],
      "type": "VEC3"
    },
    {
      "bufferView": 3,
      "byteOffset": 3145536,
      "componentType": 5126,
      "count": 65534,
      "max": [
        0.9999964833259583,
        1.0,
        0.999993085861206,
        1.0
      ],
      "min": [
        -0.9999978542327881,
        -0.9999996423721313,
        -0.9999183416366577,
        -1.0
      ],
      "type": "VEC4"
    },
    {
      "bufferView": 1,
      "byteOffset": 6291072,
      "componentType": 5126,
      "count": 65534,
      "max": [
        0.9999903440475464,
        0.999953031539917
      ],
      "min": [
        0.00012252054875716567,
        0.0011287331581115723
      ],
      "type": "VEC2"
    },
    {
      "bufferView": 1,
      "byteOffset": 6815344,
      "componentType": 5126,
      "count": 65534,
      "max": [
        0.9999903440475464,
        0.999953031539917
      ],
      "min": [
        0.00012252054875716567,
        0.0011287331581115723
      ],
      "type": "VEC2"
    },
    {
      "bufferView": 1,
      "byteOffset": 7339616,
      "componentType": 5126,
      "count": 65534,
      "max": [
        0.9999903440475464,
        0.999953031539917
      ],
      "min": [
        0.00012252054875716567,
        0.0011287331581115723
      ],
      "type": "VEC2"
    },
    {
      "bufferView": 1,
      "byteOffset": 7863888,
      "componentType": 5126,
      "count": 65534,
      "max": [
        0.9999903440475464,
        0.999953031539917
      ],
      "min": [
        0.00012252054875716567,
        0.0011287331581115723
      ],
      "type": "VEC2"
    },
    {
      "bufferView": 0,
      "byteOffset": 4299792,
      "componentType": 5125,
      "count": 347184,
      "type": "SCALAR"
    },
    {
      "bufferView": 2,
      "byteOffset": 6291120,
      "componentType": 5126,
      "count": 13978,
      "max": [
        0.4679070711135864,
        0.2776276171207428,
        0.4556214213371277
      ],
      "min": [
        -0.47045600414276123,
        -0.2798960208892822,
        -0.4482148587703705
      ],
      "type": "VEC3"
    },
    {
      "bufferView": 2,
      "byteOffset": 6458856,
      "componentType": 5126,
      "count": 13978,
      "max": [
        0.9999909996986389,
        0.9999896287918091,
        1.0
      ],
      "min": [
        -0.9999999403953552,
        -1.0,
        -0.9999998211860657
      ],
      "type": "VEC3"
    },
    {
      "bufferView": 3,
      "byteOffset": 4194080,
      "componentType": 5126,
      "count": 13978,
      "max": [
        0.9999994039535522,
        0.9999995231628418,
        0.9999996423721313,
        1.0
      ],
      "min": [
        -0.999992847442627,
        -0.9999848008155823,
        -0.9999887943267822,
        -1.0
      ],
      "type": "VEC4"
    },
    {
      "bufferView": 1,
      "byteOffset": 8388160,
      "componentType": 5126,
      "count": 13978,
      "max": [
        0.9996638894081116,
        0.9988819360733032
      ],
      "min": [
        0.0039532240480184555,
        0.006449580192565918
      ],
      "type": "VEC2"
    },
    {
      "bufferView": 1,
      "byteOffset": 8499984,
      "componentType": 5126,
      "count": 13978,
      "max": [
        0.9996638894081116,
        0.9988819360733032
      ],
      "min": [
        0.0039532240480184555,
        0.006449580192565918
      ],
      "type": "VEC2"
    },
    {
      "bufferView": 1,
      "byteOffset": 8611808,
      "componentType": 5126,
      "count": 13978,
      "max": [
        0.9996638894081116,
        0.9988819360733032
      ],
      "min": [
        0.0039532240480184555,
        0.006449580192565918
      ],
      "type": "VEC2"
    },
    {
      "bufferView": 1,
      "byteOffset": 8723632,
      "componentType": 5126,
      "count": 13978,
      "max": [
        0.9996638894081116,
        0.9988819360733032
      ],
      "min": [
        0.0039532240480184555,
        0.006449580192565918
      ],
      "type": "VEC2"
    },
    {
      "bufferView": 0,
      "byteOffset": 5688528,
      "componentType": 5125,
      "count": 40920,
      "type": "SCALAR"
    }
  ],
  "asset": {
    "extras": {
      "author": "eeesprime (https://sketchfab.com/eeesprime)",
      "license": "CC-BY-4.0 (http://creativecommons.org/licenses/by/4.0/)",
      "source": "https://sketchfab.com/3d-models/stardew-valley-mods-d2d90f48ec904741b1977f2d00ac1c0b",
      "title": "stardew valley mods"
    },
    "generator": "Sketchfab-16.54.0",
    "version": "2.0"
  },
  "bufferViews": [
    {
      "buffer": 0,
      "byteLength": 5852208,
      "name": "floatBufferViews",
      "target": 34963
    },
    {
      "buffer": 0,
      "byteLength": 8835456,
      "byteOffset": 5852208,
      "byteStride": 8,
      "name": "floatBufferViews",
      "target": 34962
    },
    {
      "buffer": 0,
      "byteLength": 6626592,
      "byteOffset": 14687664,
      "byteStride": 12,
      "name": "floatBufferViews",
      "target": 34962
    },
    {
      "buffer": 0,
      "byteLength": 4417728,
      "byteOffset": 21314256,
      "byteStride": 16,
      "name": "floatBufferViews",
      "target": 34962
    }
  ],
  "buffers": [
    {
      "byteLength": 25731984,
      "uri": "scene.bin"
    }
  ],
  "images": [
    {
      "uri": "textures/tripo_material_18eab6d1-df71-4c08-a80b-fc260daee230_baseColor.jpeg"
    },
    {
      "uri": "textures/tripo_material_18eab6d1-df71-4c08-a80b-fc260daee230_metallicRoughness.png"
    },
    {
      "uri": "textures/tripo_material_18eab6d1-df71-4c08-a80b-fc260daee230_normal.jpeg"
    }
  ],
  "materials": [
    {
      "name": "tripo_material_18eab6d1-df71-4c08-a80b-fc260daee230",
      "normalTexture": {
        "index": 2,
        "texCoord": 2
      },
      "pbrMetallicRoughness": {
        "baseColorTexture": {
          "index": 0
        },
        "metallicRoughnessTexture": {
          "index": 1,
          "texCoord": 1
        }
      }
    }
  ],
  "meshes": [
    {
      "name": "Object_0",
      "primitives": [
        {
          "attributes": {
            "NORMAL": 1,
            "POSITION": 0,
            "TANGENT": 2,
            "TEXCOORD_0": 3,
            "TEXCOORD_1": 4,
            "TEXCOORD_2": 5,
            "TEXCOORD_3": 6
          },
          "indices": 7,
          "material": 0,
          "mode": 4
        }
      ]
    },
    {
      "name": "Object_1",
      "primitives": [
        {
          "attributes": {
            "NORMAL": 9,
            "POSITION": 8,
            "TANGENT": 10,
            "TEXCOORD_0": 11,
            "TEXCOORD_1": 12,
            "TEXCOORD_2": 13,
            "TEXCOORD_3": 14
          },
          "indices": 15,
          "material": 0,
          "mode": 4
        }
      ]
    },
    {
      "name": "Object_2",
      "primitives": [
        {
          "attributes": {
            "NORMAL": 17,
            "POSITION": 16,
            "TANGENT": 18,
            "TEXCOORD_0": 19,
            "TEXCOORD_1": 20,
            "TEXCOORD_2": 21,
            "TEXCOORD_3": 22
          },
          "indices": 23,
          "material": 0,
          "mode": 4
        }
      ]
    },
    {
      "name": "Object_3",
      "primitives": [
        {
          "attributes": {
            "NORMAL": 25,
            "POSITION": 24,
            "TANGENT": 26,
            "TEXCOORD_0": 27,
            "TEXCOORD_1": 28,
            "TEXCOORD_2": 29,
            "TEXCOORD_3": 30
          },
          "indices": 31,
          "material": 0,
          "mode": 4
        }
      ]
    },
    {
      "name": "Object_4",
      "primitives": [
        {
          "attributes": {
            "NORMAL": 33,
            "POSITION": 32,
            "TANGENT": 34,
            "TEXCOORD_0": 35,
            "TEXCOORD_1": 36,
            "TEXCOORD_2": 37,
            "TEXCOORD_3": 38
          },
          "indices": 39,
          "material": 0,
          "mode": 4
        }
      ]
    }
  ],
  "nodes": [
    {
      "children": [
        1
      ],
      "matrix": [
        1.0,
        0.0,
        0.0,
        0.0,
        0.0,
        2.220446049250313e-16,
        -1.0,
        0.0,
        0.0,
        1.0,
        2.220446049250313e-16,
        0.0,
        0.0,
        0.0,
        0.0,
        1.0
      ],
      "name": "Sketchfab_model"
    },
    {
      "children": [
        2
      ],
      "name": "root"
    },
    {
      "children": [
        3
      ],
      "matrix": [
        1.0,
        0.0,
        0.0,
        0.0,
        0.0,
        2.220446049250313e-16,
        1.0,
        0.0,
        0.0,
        -1.0,
        2.220446049250313e-16,
        0.0,
        0.0,
        0.0,
        0.0,
        1.0
      ],
      "name": "GLTF_SceneRootNode"
    },
    {
      "children": [
        4,
        5,
        6,
        7,
        8
      ],
      "name": "tripo_node_18eab6d1-df71-4c08-a80b-fc260daee230_0"
    },
    {
      "mesh": 0,
      "name": "Object_4"
    },
    {
      "mesh": 1,
      "name": "Object_5"
    },
    {
      "mesh": 2,
      "name": "Object_6"
    },
    {
      "mesh": 3,
      "name": "Object_7"
    },
    {
      "mesh": 4,
      "name": "Object_8"
    }
  ],
  "samplers": [
    {
      "magFilter": 9729,
      "minFilter": 9987,
      "wrapS": 10497,
      "wrapT": 10497
    }
  ],
  "scene": 0,
  "scenes": [
    {
      "name": "Sketchfab_Scene",
      "nodes": [
        0
      ]
    }
  ],
  "textures": [
    {
      "sampler": 0,
      "source": 0
    },
    {
      "sampler": 0,
      "source": 1
    },
    {
      "sampler": 0,
      "source": 2
    }
  ]
}
