{
  "accessors": [
    {
      "bufferView": 2,
      "componentType": 5126,
      "count": 1867,
      "max": [
        2.4611334800720215,
        7.879458427429199,
        0.9197531938552856
      ],
      "min": [
        -0.7956639528274536,
        -0.7956640124320984,
        -2.7081639766693115
      ],
      "type": "VEC3"
    },
    {
      "bufferView": 2,
      "byteOffset": 22404,
      "componentType": 5126,
      "count": 1867,
      "max": [
        0.9998970627784729,
        0.9998970031738281,
        1.0
      ],
      "min": [
        -0.9998970627784729,
        -0.9998970627784729,
        -1.0
      ],
      "type": "VEC3"
    },
    {
      "bufferView": 1,
      "componentType": 5126,
      "count": 1867,
      "max": [
        0.8750001192092896,
        1.0000001192092896
      ],
      "min": [
        0.1249999850988388,
        0.0
      ],
      "type": "VEC2"
    },
    {
      "bufferView": 0,
      "componentType": 5125,
      "count": 9984,
      "type": "SCALAR"
    },
    {
      "bufferView": 2,
      "byteOffset": 44808,
      "componentType": 5126,
      "count": 1410,
      "max": [
        2.0575037002563477,
        8.202863693237305,
        -1.0379263162612915
      ],
      "min": [
        -0.39203453063964844,
        6.072563648223877,
        -1.8453108072280884
      ],
      "type": "VEC3"
    },
    {
      "bufferView": 2,
      "byteOffset": 61728,
      "componentType": 5126,
      "count": 1410,
      "max": [
        1.0,
        1.0,
        1.0
      ],
      "min": [
        -1.0,
        -1.0,
        -1.0
      ],
      "type": "VEC3"
    },
    {
      "bufferView": 1,
      "byteOffset": 14936,
      "componentType": 5126,
      "count": 1410,
      "max": [
        0.8750001192092896,
        1.0000001192092896
      ],
      "min": [
        0.1250000149011612,
        0.0
      ],
      "type": "VEC2"
    },
    {
      "bufferView": 0,
      "byteOffset": 39936,
      "componentType": 5125,
      "count": 7680,
      "type": "SCALAR"
    },
    {
      "bufferView": 2,
      "byteOffset": 78648,
      "componentType": 5126,
      "count": 2018,
      "max": [
        1.6233065128326416,
        10.891986846923828,
        0.2690405249595642
      ],
      "min": [
        0.04284471273422241,
        7.878324508666992,
        -1.598085880279541
      ],
      "type": "VEC3"
    },
    {
      "bufferView": 2,
      "byteOffset": 102864,
      "componentType": 5126,
      "count": 2018,
      "max": [
        0.9995476007461548,
        0.9968452453613281,
        0.9988033175468445
      ],
      "min": [
        -0.9995514154434204,
        -0.9988849759101868,
        -0.9991576671600342
      ],
      "type": "VEC3"
    },
    {
      "bufferView": 1,
      "byteOffset": 26216,
      "componentType": 5126,
      "count": 2018,
      "max": [
        0.0,
        0.0
      ],
      "min": [
        0.0,
        0.0
      ],
      "type": "VEC2"
    },
    {
      "bufferView": 0,
      "byteOffset": 70656,
      "componentType": 5125,
      "count": 12096,
      "type": "SCALAR"
    },
    {
      "bufferView": 2,
      "byteOffset": 127080,
      "componentType": 5126,
      "count": 4716,
      "max": [
        3.6822292804718018,
        9.564922332763672,
        2.3828554153442383
      ],
      "min": [
        -2.0674309730529785,
        -0.24658584594726563,
        -2.311492443084717
      ],
      "type": "VEC3"
    },
    {
      "bufferView": 2,
      "byteOffset": 183672,
      "componentType": 5126,
      "count": 4716,
      "max": [
        0.9995728135108948,
        0.9967065453529358,
        0.9998143315315247
      ],
      "min": [
        -0.9996417760848999,
        -0.9999312162399292,
        -0.9999977946281433
      ],
      "type": "VEC3"
    },
    {
      "bufferView": 1,
      "byteOffset": 42360,
      "componentType": 5126,
      "count": 4716,
      "max": [
        0.0,
        0.0
      ],
      "min": [
        0.0,
        0.0
      ],
      "type": "VEC2"
    },
    {
      "bufferView": 0,
      "byteOffset": 119040,
      "componentType": 5125,
      "count": 28284,
      "type": "SCALAR"
    }
  ],
  "asset": {
    "extras": {
      "author": "MlgxArt (https://sketchfab.com/MlgxArt)",
      "license": "CC-BY-4.0 (http://creativecommons.org/licenses/by/4.0/)",
      "source": "https://sketchfab.com/3d-models/blue-chicken-stardew-valley-fan-art-5863b66099b14d24ba23ff08c32cf314",
      "title": "Blue Chicken (Stardew Valley Fan Art)"
    },
    "generator": "Sketchfab-15.36.0",
    "version": "2.0"
  },
  "bufferViews": [
    {
      "buffer": 0,
      "byteLength": 232176,
      "name": "floatBufferViews",
      "target": 34963
    },
    {
      "buffer": 0,
      "byteLength": 80088,
      "byteOffset": 232176,
      "byteStride": 8,
      "name": "floatBufferViews",
      "target": 34962
    },
    {
      "buffer": 0,
      "byteLength": 240264,
      "byteOffset": 312264,
      "byteStride": 12,
      "name": "floatBufferViews",
      "target": 34962
    }
  ],
  "buffers": [
    {
      "byteLength": 552528,
      "uri": "scene.bin"
    }
  ],
  "materials": [
    {
      "doubleSided": true,
      "name": "Material.002",
      "pbrMetallicRoughness": {
        "baseColorFactor": [
          1.0,
          1.0,
          0.0,
          1.0
        ],
        "metallicFactor": 0.2,
        "roughnessFactor": 0.5
      }
    },
    {
      "doubleSided": true,
      "name": "Material.001",
      "pbrMetallicRoughness": {
        "baseColorFactor": [
          0.0,
          0.0,
          0.0,
          1.0
        ],
        "metallicFactor": 0.2,
        "roughnessFactor": 0.5
      }
    },
    {
      "doubleSided": true,
      "name": "Material.003",
      "pbrMetallicRoughness": {
        "baseColorFactor": [
          0.354352,
          0.0,
          1.0,
          1.0
        ],
        "metallicFactor": 0.2,
        "roughnessFactor": 0.5
      }
    },
    {
      "doubleSided": true,
      "name": "Material",
      "pbrMetallicRoughness": {
        "baseColorFactor": [
          0.0803307,
          0.131775,
          0.8,
          1.0
        ],
        "metallicFactor": 0.0,
        "roughnessFactor": 0.5
      }
    }
  ],
  "meshes": [
    {
      "name": "Object_0",
      "primitives": [
        {
          "attributes": {
            "NORMAL": 1,
            "POSITION": 0,
            "TEXCOORD_0": 2
          },
          "indices": 3,
          "material": 0,
          "mode": 4
        }
      ]
    },
    {
      "name": "Object_1",
      "primitives": [
        {
          "attributes": {
            "NORMAL": 5,
            "POSITION": 4,
            "TEXCOORD_0": 6
          },
          "indices": 7,
          "material": 1,
          "mode": 4
        }
      ]
    },
    {
      "name": "Object_2",
      "primitives": [
        {
          "attributes": {
            "NORMAL": 9,
            "POSITION": 8,
            "TEXCOORD_0": 10
          },
          "indices": 11,
          "material": 2,
          "mode": 4
        }
      ]
    },
    {
      "name": "Object_3",
      "primitives": [
        {
          "attributes": {
            "NORMAL": 13,
            "POSITION": 12,
            "TEXCOORD_0": 14
          },
          "indices": 15,
          "material": 3,
          "mode": 4
        }
      ]
    }
  ],
  "nodes": [
    {
      "children": [
        1
      ],
      "matrix": [
        1.0,
        0.0,
        0.0,
        0.0,
        0.0,
        2.220446049250313e-16,
        -1.0,
        0.0,
        0.0,
        1.0,
        2.220446049250313e-16,
        0.0,
        0.0,
        0.0,
        0.0,
        1.0
      ],
      "name": "Sketchfab_model"
    },
    {
      "children": [
        2
      ],
      "name": "root"
    },
    {
      "children": [
        3
      ],
      "matrix": [
        1.0,
        0.0,
        0.0,
        0.0,
        0.0,
        2.220446049250313e-16,
        1.0,
        0.0,
        0.0,
        -1.0,
        2.220446049250313e-16,
        0.0,
        0.0,
        0.0,
        0.0,
        1.0
      ],
      "name": "GLTF_SceneRootNode"
    },
    {
      "children": [
        4,
        5,
        6,
        7
      ],
      "matrix": [
        0.6833281517028809,
        0.0,
        0.0,
        0.0,
        0.0,
        0.34166407585144043,
        0.0,
        0.0,
        0.0,
        0.0,
        0.6833281517028809,
        0.0,
        -0.5690310001373291,
        -2.127300500869751,
        0.5427680015563965,
        1.0
      ],
      "name": "Cube_0"
    },
    {
      "mesh": 0,
      "name": "Object_4"
    },
    {
      "mesh": 1,
      "name": "Object_5"
    },
    {
      "mesh": 2,
      "name": "Object_6"
    },
    {
      "mesh": 3,
      "name": "Object_7"
    }
  ],
  "scene": 0,
  "scenes": [
    {
      "name": "Sketchfab_Scene",
      "nodes": [
        0
      ]
    }
  ]
}
